<mxfile host="app.diagrams.net" agent="Mozilla/5.0 (Windows NT 10.0; Win64; x64) AppleWebKit/537.36 (KHTML, like Gecko) Chrome/136.0.0.0 Safari/537.36" version="27.0.2">
  <diagram name="Page-1" id="yc0lAkpujbV6ybuho64b">
    <mxGraphModel dx="1426" dy="777" grid="1" gridSize="10" guides="1" tooltips="1" connect="1" arrows="1" fold="1" page="1" pageScale="1" pageWidth="850" pageHeight="1100" math="0" shadow="0">
      <root>
        <mxCell id="0" />
        <mxCell id="1" parent="0" />
        <mxCell id="CHRj8gSRsO-baydXpzYW-8" style="edgeStyle=orthogonalEdgeStyle;rounded=0;orthogonalLoop=1;jettySize=auto;html=1;entryX=0;entryY=0.5;entryDx=0;entryDy=0;" edge="1" parent="1" source="CHRj8gSRsO-baydXpzYW-1">
          <mxGeometry relative="1" as="geometry">
            <mxPoint x="380" y="250" as="targetPoint" />
          </mxGeometry>
        </mxCell>
        <mxCell id="CHRj8gSRsO-baydXpzYW-31" style="rounded=1;orthogonalLoop=1;jettySize=auto;html=1;exitX=1;exitY=0;exitDx=0;exitDy=0;entryX=0;entryY=0.5;entryDx=0;entryDy=0;strokeColor=default;" edge="1" parent="1" source="CHRj8gSRsO-baydXpzYW-1" target="CHRj8gSRsO-baydXpzYW-29">
          <mxGeometry relative="1" as="geometry" />
        </mxCell>
        <mxCell id="CHRj8gSRsO-baydXpzYW-1" value="Orders Websocket&lt;div&gt;Server&lt;/div&gt;" style="ellipse;whiteSpace=wrap;html=1;fillColor=#d5e8d4;strokeColor=#82b366;" vertex="1" parent="1">
          <mxGeometry x="200" y="220" width="120" height="60" as="geometry" />
        </mxCell>
        <mxCell id="CHRj8gSRsO-baydXpzYW-12" style="edgeStyle=orthogonalEdgeStyle;rounded=0;orthogonalLoop=1;jettySize=auto;html=1;entryX=0;entryY=0.5;entryDx=0;entryDy=0;" edge="1" parent="1" target="CHRj8gSRsO-baydXpzYW-15">
          <mxGeometry relative="1" as="geometry">
            <mxPoint x="500" y="250" as="sourcePoint" />
            <mxPoint x="560" y="250" as="targetPoint" />
          </mxGeometry>
        </mxCell>
        <mxCell id="CHRj8gSRsO-baydXpzYW-23" style="edgeStyle=orthogonalEdgeStyle;rounded=0;orthogonalLoop=1;jettySize=auto;html=1;exitX=1;exitY=0.5;exitDx=0;exitDy=0;entryX=0;entryY=0.5;entryDx=0;entryDy=0;" edge="1" parent="1" source="CHRj8gSRsO-baydXpzYW-15" target="CHRj8gSRsO-baydXpzYW-18">
          <mxGeometry relative="1" as="geometry" />
        </mxCell>
        <mxCell id="CHRj8gSRsO-baydXpzYW-15" value="Has order items&lt;br&gt;on screen?" style="rhombus;whiteSpace=wrap;html=1;fillColor=#e1d5e7;strokeColor=#9673a6;" vertex="1" parent="1">
          <mxGeometry x="570" y="225" width="130" height="50" as="geometry" />
        </mxCell>
        <mxCell id="CHRj8gSRsO-baydXpzYW-18" value="Update Items" style="rounded=1;whiteSpace=wrap;html=1;fillColor=#e1d5e7;strokeColor=#9673a6;" vertex="1" parent="1">
          <mxGeometry x="750" y="230" width="120" height="40" as="geometry" />
        </mxCell>
        <mxCell id="CHRj8gSRsO-baydXpzYW-24" value="Order Modified" style="rounded=1;whiteSpace=wrap;html=1;fillColor=#fff2cc;strokeColor=#d6b656;" vertex="1" parent="1">
          <mxGeometry x="380" y="230" width="120" height="40" as="geometry" />
        </mxCell>
        <mxCell id="CHRj8gSRsO-baydXpzYW-27" style="edgeStyle=orthogonalEdgeStyle;rounded=0;orthogonalLoop=1;jettySize=auto;html=1;entryX=0.5;entryY=1;entryDx=0;entryDy=0;" edge="1" parent="1" source="CHRj8gSRsO-baydXpzYW-26" target="CHRj8gSRsO-baydXpzYW-1">
          <mxGeometry relative="1" as="geometry" />
        </mxCell>
        <mxCell id="CHRj8gSRsO-baydXpzYW-28" value="Connect" style="edgeLabel;html=1;align=center;verticalAlign=middle;resizable=0;points=[];" vertex="1" connectable="0" parent="CHRj8gSRsO-baydXpzYW-27">
          <mxGeometry x="-0.0133" y="-2" relative="1" as="geometry">
            <mxPoint as="offset" />
          </mxGeometry>
        </mxCell>
        <mxCell id="CHRj8gSRsO-baydXpzYW-26" value="Orders service activated" style="shape=parallelogram;perimeter=parallelogramPerimeter;whiteSpace=wrap;html=1;fixedSize=1;size=10;fillColor=#dae8fc;strokeColor=#6c8ebf;" vertex="1" parent="1">
          <mxGeometry x="200" y="360" width="120" height="40" as="geometry" />
        </mxCell>
        <mxCell id="CHRj8gSRsO-baydXpzYW-35" style="edgeStyle=none;rounded=0;orthogonalLoop=1;jettySize=auto;html=1;entryX=0;entryY=0.5;entryDx=0;entryDy=0;" edge="1" parent="1" source="CHRj8gSRsO-baydXpzYW-29" target="CHRj8gSRsO-baydXpzYW-32">
          <mxGeometry relative="1" as="geometry" />
        </mxCell>
        <mxCell id="CHRj8gSRsO-baydXpzYW-29" value="Order Created/Deleted" style="rounded=1;whiteSpace=wrap;html=1;fillColor=#fff2cc;strokeColor=#d6b656;" vertex="1" parent="1">
          <mxGeometry x="380" y="130" width="120" height="40" as="geometry" />
        </mxCell>
        <mxCell id="CHRj8gSRsO-baydXpzYW-36" style="edgeStyle=none;rounded=0;orthogonalLoop=1;jettySize=auto;html=1;" edge="1" parent="1" source="CHRj8gSRsO-baydXpzYW-32" target="CHRj8gSRsO-baydXpzYW-34">
          <mxGeometry relative="1" as="geometry" />
        </mxCell>
        <mxCell id="CHRj8gSRsO-baydXpzYW-41" value="Yes" style="edgeLabel;html=1;align=center;verticalAlign=middle;resizable=0;points=[];" vertex="1" connectable="0" parent="CHRj8gSRsO-baydXpzYW-36">
          <mxGeometry x="-0.1601" y="2" relative="1" as="geometry">
            <mxPoint as="offset" />
          </mxGeometry>
        </mxCell>
        <mxCell id="CHRj8gSRsO-baydXpzYW-38" style="edgeStyle=none;rounded=0;orthogonalLoop=1;jettySize=auto;html=1;exitX=1;exitY=0;exitDx=0;exitDy=0;" edge="1" parent="1" source="CHRj8gSRsO-baydXpzYW-32" target="CHRj8gSRsO-baydXpzYW-37">
          <mxGeometry relative="1" as="geometry" />
        </mxCell>
        <mxCell id="CHRj8gSRsO-baydXpzYW-40" value="No" style="edgeLabel;html=1;align=center;verticalAlign=middle;resizable=0;points=[];" vertex="1" connectable="0" parent="CHRj8gSRsO-baydXpzYW-38">
          <mxGeometry x="0.0816" y="3" relative="1" as="geometry">
            <mxPoint as="offset" />
          </mxGeometry>
        </mxCell>
        <mxCell id="CHRj8gSRsO-baydXpzYW-32" value="Has order items&lt;br&gt;on screen?" style="rhombus;whiteSpace=wrap;html=1;fillColor=#e1d5e7;strokeColor=#9673a6;" vertex="1" parent="1">
          <mxGeometry x="540" y="125" width="130" height="50" as="geometry" />
        </mxCell>
        <mxCell id="CHRj8gSRsO-baydXpzYW-34" value="Update Orders" style="rounded=1;whiteSpace=wrap;html=1;fillColor=#e1d5e7;strokeColor=#9673a6;" vertex="1" parent="1">
          <mxGeometry x="710" y="160" width="120" height="40" as="geometry" />
        </mxCell>
        <mxCell id="CHRj8gSRsO-baydXpzYW-37" value="Go to orders page" style="rounded=1;whiteSpace=wrap;html=1;fillColor=#e1d5e7;strokeColor=#9673a6;" vertex="1" parent="1">
          <mxGeometry x="710" y="85" width="120" height="40" as="geometry" />
        </mxCell>
      </root>
    </mxGraphModel>
  </diagram>
</mxfile>
